<svg width="48" height="48" viewBox="0 0 48 48" fill="none" xmlns="http://www.w3.org/2000/svg">
<path d="M24 12C17.373 12 12 17.373 12 24C12 29.623 15.872 34.328 21.092 35.63C21.036 35.468 21 35.28 21 35.047V32.996C20.513 32.996 19.697 32.996 19.492 32.996C18.671 32.996 17.941 32.643 17.587 31.987C17.194 31.258 17.126 30.143 16.152 29.461C15.863 29.234 16.083 28.975 16.416 29.01C17.031 29.184 17.541 29.606 18.021 30.232C18.499 30.859 18.724 31.001 19.617 31.001C20.05 31.001 20.698 30.976 21.308 30.88C21.636 30.047 22.203 29.28 22.896 28.918C18.9 28.507 16.993 26.519 16.993 23.82C16.993 22.658 17.488 21.534 18.329 20.587C18.053 19.647 17.706 17.73 18.435 17C20.233 17 21.32 18.166 21.581 18.481C22.477 18.174 23.461 18 24.495 18C25.531 18 26.519 18.174 27.417 18.483C27.675 18.17 28.763 17 30.565 17C31.297 17.731 30.946 19.656 30.667 20.594C31.503 21.539 31.995 22.66 31.995 23.82C31.995 26.517 30.091 28.504 26.101 28.917C27.199 29.49 28 31.1 28 32.313V35.047C28 35.151 27.977 35.226 27.965 35.315C32.641 33.676 36 29.236 36 24C36 17.373 30.627 12 24 12Z" fill="#E3E4E6" fill-opacity="0.55"/>
</svg>
